HIERARCHY
ROOT Hips
{
  OFFSET -329.849 81.0561 336.546
  CHANNELS 6 Xposition Yposition Zposition Zrotation Xrotation Yrotation
  JOINT ToSpine
  {
    OFFSET -0.0105055 1.38907 -7.13956
    CHANNELS 3 Zrotation Xrotation Yrotation
    JOINT Spine
    {
      OFFSET 0.0105055 10 1
      CHANNELS 3 Zrotation Xrotation Yrotation
      JOINT Spine1
      {
        OFFSET 0 12 1.60637
        CHANNELS 3 Zrotation Xrotation Yrotation
        JOINT Neck
        {
          OFFSET 0 27 2.26658
          CHANNELS 3 Zrotation Xrotation Yrotation
          JOINT Head
          {
            OFFSET 0 9 2.12705
            CHANNELS 3 Zrotation Xrotation Yrotation
            End Site
            {
              OFFSET 0 11 2
            }
          }
        }
        JOINT LeftShoulder
        {
          OFFSET 8 19.6109 2.86452
          CHANNELS 3 Zrotation Xrotation Yrotation
          JOINT LeftArm
          {
            OFFSET 12 1 0.681055
            CHANNELS 3 Zrotation Xrotation Yrotation
            JOINT LeftForeArm
            {
              OFFSET 19 0 -1.52608
              CHANNELS 3 Zrotation Xrotation Yrotation
              JOINT LeftHand
              {
                OFFSET 23 0 0
                CHANNELS 3 Zrotation Xrotation Yrotation
                End Site
                {
                  OFFSET 10 0 0
                }
              }
            }
          }
        }
        JOINT RightShoulder
        {
          OFFSET -8 19.6109 2.86452
          CHANNELS 3 Zrotation Xrotation Yrotation
          JOINT RightArm
          {
            OFFSET -12 1 0.681055
            CHANNELS 3 Zrotation Xrotation Yrotation
            JOINT RightForeArm
            {
              OFFSET -19 0 -1.52608
              CHANNELS 3 Zrotation Xrotation Yrotation
              JOINT RightHand
              {
                OFFSET -23 0 0
                CHANNELS 3 Zrotation Xrotation Yrotation
                End Site
                {
                  OFFSET -10 0 0
                }
              }
            }
          }
        }
      }
    }
  }
  JOINT LeftUpLeg
  {
    OFFSET 9 -7.17245 0
    CHANNELS 3 Zrotation Xrotation Yrotation
    JOINT LeftLeg
    {
      OFFSET 0 -44.1113 0
      CHANNELS 3 Zrotation Xrotation Yrotation
      JOINT LeftFoot
      {
        OFFSET 0 -36.1829 0
        CHANNELS 3 Zrotation Xrotation Yrotation
        JOINT LeftToeBase
        {
          OFFSET 0 -4.84184 13
          CHANNELS 3 Zrotation Xrotation Yrotation
          End Site
          {
            OFFSET 0 1 6
          }
        }
      }
    }
  }
  JOINT RightUpLeg
  {
    OFFSET -9 -7.17245 0
    CHANNELS 3 Zrotation Xrotation Yrotation
    JOINT RightLeg
    {
      OFFSET 0 -44.0551 0
      CHANNELS 3 Zrotation Xrotation Yrotation
      JOINT RightFoot
      {
        OFFSET 0 -36.1469 0
        CHANNELS 3 Zrotation Xrotation Yrotation
        JOINT RightToeBase
        {
          OFFSET 0 -4.92256 13
          CHANNELS 3 Zrotation Xrotation Yrotation
          End Site
          {
            OFFSET 0 1 6
          }
        }
      }
    }
  }
}
MOTION
Frames:	8
Frame Time:	0.0333333
-329.849 81.0561 336.546 -16.4262 -7.53641 138.427 0 0 0 5.02549 13.0299 8.01711 -19.8014 -2.85012 11.4475 7.65481 -39.6473 -6.26512 -4.39246 10.7215 -4.5354 -18.913 3.45248 -9.99664 -47.3226 12.7109 14.5892 3.9828 6.55558 -19.9566 -7.55395 0.176162 -2.66798 11.4784 3.37805 14.459 34.2549 7.26866 31.8847 5.44016 -16.2041 17.7713 0.649958 0.0555458 9.76922 -8.10566 -56.6511 10.3889 6.54004e-007 57.8613 -14.6322 21.0742 -14.2455 2.66306 1.46762 -8.49999 -5.42189 -3.59414 12.5284 -5.89413 -1.93958e-007 32.9238 3.97408 -22.7692 6.34919 1.2797 4.11647 -15.8933 -9.21907 
-325.037 80.7276 332.005 -15.0625 -6.36494 140.693 0 0 0 2.26966 15.06 6.72869 -17.0294 -2.95615 9.57904 8.97209 -41.4077 -5.74736 -3.81703 10.2979 -4.49637 -22.6038 3.51577 -8.61093 -43.8844 10.0743 5.58779 4.06515 8.61026 -24.0695 -7.56628 0.264485 -3.99819 14.0785 4.03263 15.5165 39.786 7.18475 24.724 3.06777 -8.41305 20.8672 2.29909 0.211954 10.5331 -8.60392 -51.329 8.93579 -1.54508e-007 61.9396 -14.0788 26.1198 -18.1712 4.24892 1.44789 -16.4742 -3.46164 -3.36458 7.98138 -6.50704 1.19053e-007 49.0118 7.06605 -27.051 4.98063 1.1988 3.94932 -14.9729 -8.44861 
-320.17 80.6045 326.974 -15.0898 -5.34786 143.6 0 0 0 -0.464742 15.2286 5.65144 -15.1952 -2.63318 8.07727 12.848 -39.409 -5.12621 -5.01487 6.84472 -3.87921 -26.4259 3.84923 -8.27644 -40.2234 12.733 -6.50384 7.40047 13.8584 -28.4695 -6.13108 0.220046 -4.10703 18.5618 4.79613 15.4139 42.4898 10.9717 16.027 3.73035 -9.7426 21.29 3.87197 0.305482 9.01869 -10.5692 -45.6689 6.25106 -2.96653e-007 64.6305 -14.7726 25.9266 -25.6093 5.98979 1.31475 -13.2385 -3.41039 -4.98252 0.724092 -7.49385 4.72648e-007 65.4133 5.15567 -29.8962 -5.03966 -1.34629 4.04282 -15.5878 -10.2071 
-315.397 80.6112 322.216 -14.5418 -5.77072 147.599 0 0 0 -0.932845 15.2239 3.5041 -13.6825 -2.1347 5.75388 14.3941 -39.0169 -4.61218 -4.55996 5.98276 -3.64601 -29.2937 4.08769 -8.02107 -35.0536 16.8839 -20.8862 10.2028 15.1765 -34.508 -7.40593 -0.04779 0.738413 21.291 5.03479 14.5437 48.1661 13.6075 6.19174 3.22047 -8.15752 21.5565 2.37386 0.156346 7.53521 -10.941 -40.0333 3.66042 -1.81478e-006 64.7899 -15.3159 29.3057 -29.5877 7.90024 1.89419 -20.0191 -8.18053 -5.57072 -10.048 -9.0063 6.85795e-007 81.1857 -4.44146 -34.4729 -11.4523 -3.5638 3.89654 -14.7379 -9.28827 
-310.494 81.2085 316.696 -13.9601 -4.21508 144.445 0 0 0 -1.20833 14.0491 4.07496 -15.1621 0.444452 6.93383 16.4264 -36.9067 -3.97591 -4.34016 4.98642 -2.99212 -28.5072 4.14593 -8.44267 -29.5531 21.1115 -36.6303 14.3814 17.311 -40.752 -11.1994 -0.358928 3.65958 21.8422 4.86902 13.6418 55.5994 12.5535 -5.42026 2.2466 -5.57381 21.5352 2.28999 0.157381 7.86199 -7.29997 -30.9404 9.34192 -8.04347e-008 61.9485 -16.7644 30.1827 -35.2797 9.80194 1.83465 -15.9925 -7.47205 -6.37429 -21.4839 -2.25908 -180 87.2582 167.229 -33.3444 -17.8676 -5.39089 3.81535 -14.3007 -8.95437 
-305.359 81.1688 311.66 -11.2845 -5.11802 145.57 0 0 0 -0.41473 14.0208 1.99975 -12.5268 0.687428 4.40927 17.7703 -33.8317 -1.89645 -4.08867 2.73698 -0.850511 -24.9451 4.01859 -9.34852 -27.0618 19.7991 -47.8393 21.182 17.4607 -52.2493 -13.9559 0.590102 -4.81852 21.4232 4.46988 12.4738 61.0623 10.1319 -16.7884 0.124605 -0.298479 24.3744 2.11072 0.102362 5.55227 -2.84549 -23.2801 10.3402 -1.09254e-006 59.8348 -19.6757 31.9276 -38.3144 11.3506 1.61969 -17.3582 -4.99939 -3.97385 -33.4658 0.315904 -180 81.9325 163.255 -35.2325 -22.1303 -7.10661 3.66805 -13.5453 -8.0797 
-299.918 81.1958 306.465 -8.01877 -7.758 148.777 0 0 0 0.829988 13.9042 -1.74335 -7.11114 -0.400316 -0.368662 18.1865 -32.2449 0.304177 -4.52305 4.7328 1.58388 -20.2721 3.59314 -9.88215 -24.6426 16.2481 -55.9658 26.1786 15.3125 -61.7554 -8.63838 0.942685 -12.4327 18.438 3.82892 11.7143 64.5754 6.61913 -27.8353 -2.49056 4.34067 29.8853 2.38665 0.105291 5.05138 2.94024 -16.5913 9.96391 -3.6546e-007 56.142 -22.2512 34.0305 -40.7766 12.9776 1.52371 -16.285 -4.3063 -1.96193 -45.4689 -0.429714 -180 83.5035 162.121 -34.1629 -24.3648 -7.59073 3.55423 -12.9926 -7.61006 
-293.912 82.0998 299.999 -5.49697 -9.92118 150.167 0 0 0 1.95677 13.3484 -5.31434 -2.88971 -2.68847 -4.65273 18.5034 -28.1143 3.18879 -4.52858 5.73482 4.95491 -14.9268 2.96873 -10.0602 -23.8246 12.9315 -58.6852 25.973 11.941 -66.9879 -3.64986 0.385226 -12.046 16.1212 3.63067 12.2669 64.3781 4.08329 -38.5423 -4.61875 6.29619 36.3774 2.54292 0.127766 5.75172 7.44922 -7.82486 9.26727 -8.97612e-007 48.0429 -24.8503 28.0713 -38.3971 9.9499 1.55097 -19.6059 -3.13569 -1.38397 -54.347 -0.999851 3.93761e-005 88.599 -15.7902 -27.8394 -25.873 -6.51657 3.57968 -13.0839 -8.52193 
